<svg width="193" height="193" viewBox="0 0 193 193" fill="none" xmlns="http://www.w3.org/2000/svg">
<circle cx="96.5" cy="96.5" r="92" stroke="#AA3BFF" stroke-width="9"/>
<circle cx="95.5" cy="96.5" r="88" fill="#D9D9D9" fill-opacity="0.85" stroke="#7945FF"/>
<circle cx="96.2074" cy="97.2073" r="75.6624" fill="#2A127F"/>
<path d="M39.6464 100.563L45.5794 66.836L54.4457 65.4775L70.2048 95.8805L62.931 96.995L59.7766 90.7826L48.0267 92.583L46.8771 99.4548L39.6464 100.563ZM48.9871 86.489L57.0356 85.2558L49.8078 70.8575L51.6154 70.5805L48.9871 86.489ZM73.0636 95.4425L68.0714 62.8612L74.5274 61.872L79.5196 94.4533L73.0636 95.4425ZM95.603 92.2533C92.7623 92.6885 90.4365 92.2667 88.6253 90.9877C86.8385 89.6757 85.734 87.6424 85.312 84.8878L83.8677 75.4621L79.908 76.0688L79.0507 70.4736L79.2659 70.4406C80.4711 70.2559 81.3431 69.814 81.882 69.1147C82.4496 68.411 82.6411 67.4566 82.4565 66.2515L82.1927 64.5299L88.6487 63.5407L89.4664 68.8777L94.9755 68.0335L95.8328 73.6287L90.3237 74.4729L91.702 83.4682C91.8251 84.2716 92.0719 84.9239 92.4424 85.4252C92.8084 85.8977 93.3125 86.2169 93.9547 86.3828C94.5968 86.5487 95.3626 86.5635 96.2521 86.4272C96.4529 86.3965 96.6803 86.347 96.9341 86.2787C97.188 86.2104 97.4562 86.14 97.7387 86.0673L98.5762 91.5334C98.1546 91.6567 97.6756 91.7889 97.1392 91.9298C96.6029 92.0707 96.0908 92.1785 95.603 92.2533ZM113.758 89.7358C111.262 90.1183 109.012 89.9051 107.008 89.0961C105.001 88.2584 103.352 86.984 102.062 85.2728C100.772 83.5616 99.9529 81.5726 99.6056 79.3059C99.2451 76.953 99.4406 74.7792 100.192 72.7846C100.972 70.7856 102.171 69.1189 103.787 67.7847C105.403 66.4505 107.331 65.6119 109.569 65.269C111.434 64.9832 113.13 65.0317 114.657 65.4144C116.179 65.7685 117.51 66.4016 118.648 67.3137C119.815 68.2215 120.764 69.3388 121.496 70.6657C122.224 71.9638 122.713 73.4306 122.963 75.0662C123.034 75.5253 123.075 75.9887 123.088 76.4566C123.126 76.8914 123.111 77.2754 123.045 77.6086L105.441 80.3059L104.716 75.5715L118.661 73.4348L115.948 76.1411C116.046 74.8633 115.864 73.7752 115.404 72.8766C114.939 71.9494 114.263 71.2748 113.376 70.8527C112.513 70.3976 111.508 70.2579 110.36 70.4338C109.241 70.6052 108.322 71.0251 107.602 71.6934C106.882 72.3616 106.402 73.2574 106.163 74.3806C105.924 75.5038 105.964 76.8192 106.283 78.3267C106.371 79.6642 106.707 80.8021 107.291 81.7404C107.875 82.6787 108.656 83.3667 109.634 83.8043C110.607 84.2132 111.724 84.3209 112.987 84.1274C114.135 83.9516 115.075 83.5725 115.808 82.9904C116.57 82.4038 117.119 81.6736 117.455 80.7998L122.995 82.4618C122.712 83.6798 122.134 84.7962 121.262 85.8109C120.418 86.8212 119.359 87.6735 118.086 88.3679C116.807 89.0337 115.365 89.4896 113.758 89.7358ZM128.671 86.9222L125.07 63.4224L131.096 62.4991L131.96 68.1374L131.404 67.3856C131.617 65.3266 132.259 63.8627 133.33 62.9938C134.425 62.0918 135.791 61.5155 137.426 61.2649L138.804 61.0539L139.661 66.6491L137.638 66.959C136.06 67.2008 134.858 67.8842 134.032 69.0093C133.201 70.1057 132.92 71.529 133.188 73.2793L135.127 85.933L128.671 86.9222ZM74.2086 140.309C71.7123 140.692 69.4624 140.478 67.459 139.669C65.4511 138.832 63.8022 137.557 62.5122 135.846C61.2221 134.135 60.4035 132.146 60.0561 129.879C59.6956 127.526 59.8912 125.353 60.6428 123.358C61.4231 121.359 62.6214 119.692 64.2377 118.358C65.854 117.024 67.7812 116.185 70.0193 115.842C71.8843 115.556 73.5804 115.605 75.1074 115.988C76.63 116.342 77.9604 116.975 79.0986 117.887C80.2656 118.795 81.215 119.912 81.9469 121.239C82.6744 122.537 83.1634 124.004 83.414 125.639C83.4844 126.099 83.526 126.562 83.539 127.03C83.5762 127.465 83.5617 127.849 83.4953 128.182L65.8919 130.879L65.1665 126.145L79.1114 124.008L76.3985 126.714C76.4964 125.437 76.315 124.348 75.8543 123.45C75.3892 122.523 74.7132 121.848 73.8262 121.426C72.9636 120.971 71.9584 120.831 70.8106 121.007C69.6916 121.179 68.7721 121.598 68.0522 122.267C67.3324 122.935 66.8529 123.831 66.6139 124.954C66.3748 126.077 66.4149 127.392 66.7339 128.9C66.8214 130.238 67.1573 131.375 67.7416 132.314C68.3258 133.252 69.1067 133.94 70.0841 134.378C71.0571 134.786 72.1749 134.894 73.4374 134.701C74.5851 134.525 75.5255 134.146 76.2586 133.564C77.0204 132.977 77.5693 132.247 77.9052 131.373L83.4459 133.035C83.1627 134.253 82.5849 135.37 81.7125 136.384C80.8688 137.394 79.8101 138.247 78.5362 138.941C77.258 139.607 75.8155 140.063 74.2086 140.309ZM102.107 145.197C100.299 145.474 98.5747 145.43 96.9329 145.065C95.2911 144.7 93.8272 144.058 92.5411 143.139C91.2881 142.244 90.3056 141.102 89.5936 139.714L95.253 136.688C95.7357 137.73 96.5132 138.492 97.5855 138.974C98.6578 139.456 99.8682 139.593 101.217 139.387C102.278 139.224 103.166 138.882 103.879 138.362C104.597 137.87 105.099 137.221 105.386 136.413C105.703 135.601 105.784 134.693 105.63 133.689L104.805 128.309L106.291 129.667C105.69 131.11 104.809 132.258 103.647 133.111C102.481 133.936 101.052 134.478 99.3592 134.738C97.1785 135.072 95.1526 134.883 93.2815 134.171C91.406 133.431 89.8486 132.274 88.6093 130.702C87.3655 129.101 86.5744 127.196 86.2358 124.987C85.8973 122.777 86.0861 120.752 86.8023 118.909C87.5141 117.038 88.6417 115.485 90.1851 114.25C91.7286 113.015 93.5763 112.233 95.7283 111.903C97.4212 111.644 98.9517 111.762 100.32 112.257C101.683 112.723 102.915 113.577 104.016 114.818L103.436 116.493L102.651 111.371L108.676 110.448L112.086 132.699C112.402 134.765 112.182 136.679 111.424 138.439C110.67 140.229 109.488 141.717 107.879 142.903C106.298 144.085 104.374 144.85 102.107 145.197ZM99.3661 128.746C100.456 128.579 101.368 128.204 102.101 127.622C102.834 127.04 103.352 126.299 103.655 125.401C103.987 124.499 104.067 123.488 103.895 122.369C103.724 121.25 103.345 120.31 102.758 119.548C102.167 118.757 101.435 118.194 100.561 117.858C99.6831 117.494 98.7132 117.393 97.6515 117.555C96.5612 117.722 95.623 118.116 94.8369 118.735C94.0751 119.322 93.5163 120.083 93.1604 121.019C92.8288 121.921 92.7488 122.932 92.9202 124.051C93.0873 125.141 93.4641 126.067 94.0507 126.829C94.666 127.586 95.4271 128.145 96.3339 128.505C97.265 128.833 98.2758 128.913 99.3661 128.746ZM128.773 131.949C126.449 132.305 124.244 132.099 122.159 131.332C120.103 130.561 118.36 129.345 116.931 127.684C115.526 125.991 114.644 123.967 114.283 121.614C113.918 119.233 114.155 117.038 114.992 115.03C115.859 113.018 117.157 111.336 118.888 109.984C120.648 108.628 122.69 107.772 125.014 107.416C127.338 107.06 129.529 107.267 131.585 108.039C133.642 108.81 135.37 110.029 136.77 111.694C138.2 113.354 139.097 115.375 139.461 117.757C139.822 120.109 139.571 122.306 138.709 124.347C137.872 126.355 136.587 128.035 134.856 129.387C133.125 130.739 131.097 131.593 128.773 131.949ZM127.883 126.138C129.059 125.958 130.036 125.529 130.814 124.852C131.62 124.171 132.192 123.305 132.53 122.255C132.897 121.2 132.984 120.041 132.79 118.779C132.597 117.516 132.169 116.451 131.508 115.583C130.871 114.683 130.065 114.028 129.092 113.619C128.144 113.177 127.081 113.046 125.905 113.226C124.728 113.407 123.739 113.852 122.938 114.562C122.132 115.243 121.545 116.111 121.178 117.166C120.835 118.188 120.761 119.33 120.954 120.592C121.148 121.855 121.563 122.936 122.2 123.837C122.866 124.734 123.686 125.386 124.659 125.795C125.632 126.204 126.707 126.319 127.883 126.138Z" fill="#7945FF"/>
<mask id="mask0_2002_599" style="mask-type:alpha" maskUnits="userSpaceOnUse" x="21" y="22" width="152" height="152">
<circle cx="96.6624" cy="97.6624" r="75.6624" fill="#2A127F"/>
</mask>
<g mask="url(#mask0_2002_599)">
<path d="M99.8974 59.1692L142.937 52.5746L136.343 9.53457L93.3028 16.1292L99.8974 59.1692Z" fill="#7945FF"/>
<path d="M16.4718 159.874L74.2817 165.051L79.4581 107.241L21.6481 102.064L16.4718 159.874Z" fill="#7945FF"/>
</g>
</svg>
